<?xml version="1.0" encoding="UTF-8"?><svg id="_лой_2" xmlns="http://www.w3.org/2000/svg" viewBox="0 0 1722.85 906.59"><g id="_лой_1-2"><g><path d="M663.23,546.66h48.59v13.33h-227.68v-13.33h36.05V285.28c0-39.97-13.33-57.21-33.31-57.21-30.96,0-54.47,39.97-56.82,82.29l-.39,7.45v228.85h35.66v13.33H250.58v-13.33h36.05V285.28c0-40.75-15.28-57.21-33.7-57.21-33.31,0-56.43,40.36-56.43,72.89v245.7h35.27v13.33H4.09v-13.33H53.08V212H4.09v-13.33c58.39,0,128.14-2.35,192.02-11.36v68.19c16.07-33.31,55.65-67.01,118.74-67.01s98.36,30.57,110.51,85.04c11.36-43.5,53.69-85.04,122.66-85.04,77.98,0,115.21,48.59,115.21,128.54v229.63Z"/><path d="M918.34,546.66h48.59v13.33h-240.61v-13.33h48.98V212h-48.98v-13.33c63.88,0,128.14-2.35,192.02-11.36v359.35Zm-68.19-410.68c-38.4,0-63.48-29.78-63.48-63.88s25.08-63.48,63.48-63.48,63.88,29.39,63.88,63.48-25.08,63.88-63.88,63.88Z"/><path d="M1419.15,546.66h48.59v13.33h-228.86v-13.33h37.23V285.67c0-39.58-11.75-59.56-37.23-59.56-38.4,0-66.23,44.68-66.62,68.58v251.97h39.97v13.33h-231.6v-13.33h48.59V24.69h-48.59V11.36c63.88,0,128.14-2.35,191.63-11.36V256.68c16.07-30.17,59.17-68.19,128.93-68.19,79.55,0,117.95,48.2,117.95,128.54v229.63Z"/><path d="M1674.26,546.66h48.59v13.33h-240.61v-13.33h48.98V212h-48.98v-13.33c63.88,0,128.14-2.35,192.02-11.36v359.35Zm-68.19-410.68c-38.4,0-63.48-29.78-63.48-63.88s25.08-63.48,63.48-63.48,63.88,29.39,63.88,63.48-25.08,63.88-63.88,63.88Z"/></g><g><path d="M0,903.35l2.61-19.96c3.9,.63,6.55,.94,7.94,.94,7.52,0,11.29-4.95,11.29-14.84v-113.17h22.67v115.99c0,10.94-2.73,19.12-8.2,24.56-5.47,5.43-12.94,8.15-22.41,8.15-4.67,0-9.3-.56-13.9-1.67Zm33.44-163.74c-4.04,0-7.49-1.34-10.34-4.02-2.86-2.68-4.28-5.97-4.28-9.87s1.41-7.37,4.23-9.98c2.82-2.61,6.29-3.92,10.4-3.92s7.44,1.31,10.19,3.92c2.75,2.61,4.13,5.94,4.13,9.98s-1.39,7.11-4.18,9.82c-2.79,2.72-6.17,4.08-10.14,4.08Z"/><path d="M119.23,865.94c-13.1,0-23.51-3.83-31.24-11.49-7.73-7.66-11.6-19.26-11.6-34.8v-63.32h22.88v60.29c0,9.89,2.28,17.19,6.84,21.89,4.56,4.7,10.5,7.05,17.82,7.05,8.99,0,16.46-3.13,22.41-9.4,5.96-6.27,9.25-13.76,9.87-22.47l.21-57.37h22.67v107.21h-22.88v-13.27c-9.06,10.45-21.39,15.67-36.99,15.67Z"/><path d="M204.8,830.63h22.67c0,5.37,2.52,9.44,7.58,12.23,5.05,2.79,11.86,4.18,20.43,4.18,14.84,0,22.26-3.97,22.26-11.91,0-1.67-.3-3.15-.89-4.44-.59-1.29-1.57-2.4-2.93-3.34-1.36-.94-2.68-1.72-3.97-2.35s-3.13-1.24-5.54-1.83c-2.4-.59-4.41-1.04-6.01-1.36-1.6-.31-3.92-.71-6.95-1.2-3.03-.49-5.31-.87-6.84-1.15-4.18-.77-7.98-1.65-11.39-2.66-3.41-1.01-6.86-2.42-10.34-4.23-3.48-1.81-6.41-3.88-8.78-6.22-2.37-2.33-4.3-5.24-5.8-8.73-1.5-3.48-2.25-7.38-2.25-11.7,0-10.24,3.87-18.16,11.6-23.77,7.73-5.61,18.22-8.41,31.45-8.41,14.14,0,25.71,3.1,34.69,9.3,8.99,6.2,13.48,14.87,13.48,26.02h-22.67c0-5.08-2.33-9.09-7-12.02-4.67-2.93-10.76-4.39-18.29-4.39-6.41,0-11.44,1.04-15.1,3.13-3.66,2.09-5.49,5.16-5.49,9.2,0,1.6,.26,3.05,.78,4.34,.52,1.29,1.48,2.42,2.87,3.4,1.39,.98,2.65,1.78,3.76,2.4,1.11,.63,2.96,1.25,5.54,1.88,2.58,.63,4.61,1.1,6.11,1.41,1.5,.31,3.97,.78,7.42,1.41,3.45,.63,5.97,1.12,7.58,1.46,4.04,.77,7.56,1.57,10.55,2.4,2.99,.84,6.3,2.09,9.93,3.76,3.62,1.67,6.6,3.59,8.93,5.75,2.33,2.16,4.3,5.02,5.9,8.57,1.6,3.55,2.4,7.56,2.4,12.02,0,10.52-3.99,18.51-11.96,23.98s-19.07,8.2-33.28,8.2c-9.75,0-18.34-1.24-25.76-3.71-7.42-2.47-13.39-6.41-17.92-11.81-4.53-5.4-6.79-12-6.79-19.8Z"/><path d="M312.43,776.71v-20.38h20.58v-30.2l22.88-7.42v37.62h39.6v20.38h-39.6v47.44c0,7.73,1.48,13.2,4.44,16.41,2.96,3.21,7.02,4.81,12.17,4.81,5.78,0,12.36-2.05,19.75-6.17l7.73,17.97c-9.2,5.85-19.33,8.78-30.41,8.78-5.37,0-10.14-.68-14.32-2.04-4.18-1.36-7.99-3.6-11.44-6.74-3.45-3.13-6.11-7.61-7.99-13.43s-2.82-12.83-2.82-21.06v-45.98h-20.58Z"/><path d="M500.62,863.54h-22.67v-107.21h22.67v31.66c3.48-8.92,9.02-16.65,16.61-23.2,7.59-6.55,16.75-10.17,27.48-10.87v26.12c-11.7,1.25-21.98,5.75-30.83,13.48-8.85,7.73-13.27,16.86-13.27,27.38v42.63Z"/><path d="M564.57,725.72c0-4.04,1.39-7.37,4.18-9.98,2.79-2.61,6.23-3.92,10.34-3.92s7.45,1.31,10.24,3.92c2.79,2.61,4.18,5.94,4.18,9.98s-1.41,7.11-4.23,9.82c-2.82,2.72-6.22,4.08-10.19,4.08s-7.47-1.34-10.29-4.02c-2.82-2.68-4.23-5.97-4.23-9.87Zm3.03,30.62h22.67v107.21h-22.67v-107.21Z"/><path d="M623.92,833.87c-4.53-8.08-6.79-17.1-6.79-27.06s2.26-18.98,6.79-27.06c4.53-8.08,10.87-14.44,19.02-19.07,8.15-4.63,17.31-6.95,27.48-6.95,14.42,0,26.05,4.63,34.9,13.9v-11.29h22.67v87.56c0,8.36-.99,15.99-2.98,22.88-1.99,6.9-4.74,12.78-8.26,17.66-3.52,4.88-7.72,8.99-12.59,12.33-4.88,3.34-10.21,5.82-15.99,7.42-5.78,1.6-11.91,2.4-18.39,2.4-18.95,0-35.49-6.65-49.63-19.96l12.64-16.93c12.4,10.73,24.8,16.09,37.2,16.09,10.8,0,19.38-3.47,25.76-10.4,6.37-6.93,9.56-16.32,9.56-28.16v-1.25c-8.85,9.27-20.48,13.9-34.9,13.9-10.17,0-19.33-2.32-27.48-6.95s-14.49-10.99-19.02-19.07Zm25.65-50.31c-6.24,6.16-9.35,13.92-9.35,23.25s3.12,17.1,9.35,23.3c6.23,6.2,14.05,9.3,23.46,9.3s17.24-3.1,23.51-9.3c6.27-6.2,9.4-13.97,9.4-23.3s-3.13-17-9.4-23.2c-6.27-6.2-14.11-9.3-23.51-9.3s-17.22,3.08-23.46,9.25Z"/><path d="M760.29,713.7h22.67v57.16c9.12-11.42,21.66-17.14,37.62-17.14,12.96,0,23.27,3.9,30.93,11.7,7.66,7.8,11.49,19.47,11.49,35v63.11h-22.67v-60.4c0-9.68-2.32-16.88-6.95-21.58-4.63-4.7-10.61-7.05-17.92-7.05-9.4,0-17.17,3.45-23.3,10.34-6.13,6.9-9.2,15.01-9.2,24.35v54.34h-22.67v-149.84Z"/><path d="M880.56,776.71v-20.38h20.58v-30.2l22.88-7.42v37.62h39.6v20.38h-39.6v47.44c0,7.73,1.48,13.2,4.44,16.41,2.96,3.21,7.02,4.81,12.17,4.81,5.78,0,12.36-2.05,19.75-6.17l7.73,17.97c-9.2,5.85-19.33,8.78-30.41,8.78-5.37,0-10.14-.68-14.32-2.04-4.18-1.36-7.99-3.6-11.44-6.74-3.45-3.13-6.11-7.61-7.99-13.43s-2.82-12.83-2.82-21.06v-45.98h-20.58Z"/><path d="M1034.26,776.71v-20.38h20.79v-5.33c0-14.14,3.24-24.57,9.72-31.3,6.48-6.72,15.15-10.08,26.02-10.08,8.71,0,17.03,2.09,24.97,6.27l-5.33,17.76c-5.5-2.58-10.69-3.87-15.57-3.87-5.29,0-9.47,1.53-12.54,4.6s-4.6,8.53-4.6,16.41v5.54h36.78v20.38h-36.78v86.83h-22.67v-86.83h-20.79Z"/><path d="M1204.38,861.61c-7.18,2.89-14.84,4.34-22.99,4.34s-15.81-1.45-22.99-4.34c-7.18-2.89-13.32-6.81-18.44-11.75-5.12-4.95-9.16-10.87-12.12-17.76-2.96-6.9-4.44-14.25-4.44-22.05s1.48-15.19,4.44-22.15c2.96-6.96,7-12.94,12.12-17.92,5.12-4.98,11.27-8.93,18.44-11.86,7.17-2.93,14.84-4.39,22.99-4.39s15.81,1.46,22.99,4.39c7.17,2.93,13.32,6.88,18.44,11.86,5.12,4.98,9.16,10.96,12.12,17.92,2.96,6.97,4.44,14.35,4.44,22.15s-1.48,15.15-4.44,22.05-7,12.82-12.12,17.76c-5.12,4.95-11.27,8.87-18.44,11.75Zm-22.99-87.09c-10.24,0-18.62,3.36-25.13,10.08-6.51,6.72-9.77,15.2-9.77,25.44s3.26,18.69,9.77,25.34c6.51,6.65,14.89,9.98,25.13,9.98s18.53-3.33,25.08-9.98c6.55-6.65,9.82-15.1,9.82-25.34s-3.28-18.72-9.82-25.44c-6.55-6.72-14.91-10.08-25.08-10.08Z"/><path d="M1288.6,863.54h-22.67v-107.21h22.67v31.66c3.48-8.92,9.02-16.65,16.61-23.2,7.59-6.55,16.75-10.17,27.48-10.87v26.12c-11.7,1.25-21.98,5.75-30.83,13.48-8.85,7.73-13.27,16.86-13.27,27.38v42.63Z"/><path d="M1413.47,863.54v-107.21h22.78v13.48c8.22-10.73,19.68-16.09,34.38-16.09,7.8,0,14.7,1.6,20.69,4.81,5.99,3.21,10.59,7.98,13.79,14.32,8.99-12.75,21.91-19.12,38.77-19.12,12.47,0,22.4,3.69,29.78,11.08,7.38,7.38,11.08,18.32,11.08,32.81v65.93h-22.88v-62.9c0-8.78-2.14-15.32-6.43-19.64-4.28-4.32-9.7-6.48-16.25-6.48-8.43,0-15.33,3.1-20.69,9.3-5.37,6.2-8.05,13.52-8.05,21.94v57.78h-22.67v-62.9c0-8.78-2.14-15.32-6.43-19.64-4.29-4.32-9.77-6.48-16.46-6.48-8.29,0-15.13,3.1-20.53,9.3-5.4,6.2-8.1,13.52-8.1,21.94v57.78h-22.78Z"/><path d="M1608.66,809.83c0-10.38,2.39-19.85,7.16-28.42,4.77-8.57,11.42-15.32,19.96-20.27,8.53-4.95,18.06-7.42,28.58-7.42,8.01,0,15.46,1.51,22.36,4.55,6.9,3.03,12.59,7,17.08,11.91,4.49,4.91,7.99,10.45,10.5,16.61,2.51,6.17,3.76,12.42,3.76,18.76,0,3.48-.45,7.42-1.36,11.81h-84.53c1.67,8.5,5.66,15.33,11.96,20.48,6.3,5.16,14.26,7.73,23.88,7.73,12.47,0,23.37-4.28,32.71-12.85l12.64,16.51c-6.06,5.71-13.08,9.96-21.05,12.75-7.98,2.79-16.25,4.18-24.82,4.18-9.13,0-17.45-1.53-24.97-4.6s-13.72-7.21-18.6-12.43c-4.88-5.22-8.64-11.2-11.29-17.92-2.65-6.72-3.97-13.85-3.97-21.37Zm55.69-36.36c-8.01,0-14.82,2.32-20.43,6.95s-9.35,10.71-11.23,18.23h62.07c-1.53-7.17-4.93-13.17-10.19-17.97-5.26-4.81-12-7.21-20.22-7.21Z"/></g></g></svg>